#N canvas 5 23 900 632 10;
#X declare -stdpath extra/list-abs -stdpath extra/moocow -stdpath extra/zexy
;
#X declare -stdpath extra/mrpeach;
#X floatatom 30 402 5 0 0 0 - - -;
#X obj 29 -10 loadbang;
#X obj 29 17 del 500;
#X msg 29 44 \; pd dsp 1;
#X obj 29 91 s StartReset;
#X floatatom 30 348 5 0 0 0 - - -;
#X obj 714 -9 keyname;
#X obj 715 16 unpack s;
#X floatatom 80 348 5 0 0 0 - - -;
#X floatatom 130 348 5 0 0 0 - - -;
#X floatatom 180 348 5 0 0 0 - - -;
#X floatatom 230 348 5 0 0 0 - - -;
#X floatatom 280 348 5 0 0 0 - - -;
#X msg 30 226 0;
#X msg 80 226 1;
#X msg 130 226 2;
#X msg 180 226 3;
#X msg 230 226 4;
#X obj 30 256 tabread onkai_1;
#X obj 80 276 tabread onkai_1;
#X obj 180 276 tabread onkai_1;
#X obj 130 256 tabread onkai_1;
#X obj 230 256 tabread onkai_1;
#X obj 280 276 tabread onkai_1;
#X floatatom 330 348 5 0 0 0 - - -;
#X floatatom 380 348 5 0 0 0 - - -;
#X floatatom 430 348 5 0 0 0 - - -;
#X floatatom 480 348 5 0 0 0 - - -;
#X floatatom 530 348 5 0 0 0 - - -;
#X floatatom 579 348 5 0 0 0 - - -;
#X obj 330 256 tabread onkai_1;
#X obj 380 276 tabread onkai_1;
#X obj 480 276 tabread onkai_1;
#X obj 430 256 tabread onkai_1;
#X obj 530 256 tabread onkai_1;
#X obj 579 276 tabread onkai_1;
#X msg 330 226 6;
#X msg 380 226 7;
#X msg 430 226 8;
#X msg 480 226 9;
#X msg 530 226 10;
#X msg 579 226 11;
#X obj 30 203 r k0;
#X obj 80 203 r k1;
#X obj 130 203 r k2;
#X obj 180 203 r k3;
#X obj 230 203 r k4;
#X obj 280 203 r k5;
#X obj 330 203 r k6;
#X obj 380 203 r k7;
#X obj 430 203 r k8;
#X obj 480 203 r k9;
#X obj 530 203 r k10;
#X obj 580 203 r k11;
#X obj 686 61 s k0;
#X obj 717 61 s k1;
#X obj 748 61 s k2;
#X obj 779 61 s k3;
#X obj 810 61 s k4;
#X obj 841 61 s k5;
#X obj 696 91 s k6;
#X obj 727 91 s k7;
#X obj 758 91 s k8;
#X obj 789 91 s k9;
#X obj 820 91 s k10;
#X obj 851 91 s k11;
#X msg 280 226 5;
#X obj 30 594 mathrax_soundout;
#X floatatom 80 402 5 0 0 0 - - -;
#X floatatom 130 402 5 0 0 0 - - -;
#X floatatom 180 402 5 0 0 0 - - -;
#X floatatom 230 402 5 0 0 0 - - -;
#X floatatom 280 402 5 0 0 0 - - -;
#X floatatom 330 402 5 0 0 0 - - -;
#X floatatom 380 402 5 0 0 0 - - -;
#X floatatom 430 402 5 0 0 0 - - -;
#X floatatom 480 402 5 0 0 0 - - -;
#X floatatom 530 402 5 0 0 0 - - -;
#X floatatom 580 402 5 0 0 0 - - -;
#X obj 715 36 sel q w e r t y u i o p [ ];
#X obj 603 37 sel v b n;
#X obj 496 119 onkai1;
#X obj 603 119 s o1;
#X obj 635 119 s o2;
#X obj 668 119 s o3;
#X obj 496 87 r o1;
#X obj 525 87 r o2;
#X obj 554 87 r o3;
#X obj 580 422 Orgel;
#X obj 230 422 Orgel;
#X obj 30 422 Orgel;
#X obj 80 422 Orgel;
#X obj 131 422 Orgel;
#X obj 180 423 Orgel;
#X obj 280 422 Orgel;
#X obj 330 422 Orgel;
#X obj 380 422 Orgel;
#X obj 430 422 Orgel;
#X obj 480 422 Orgel;
#X obj 530 422 Orgel;
#X obj 30 447 /~ 4;
#X obj 80 447 /~ 4;
#X obj 130 447 /~ 4;
#X obj 180 447 /~ 4;
#X obj 230 447 /~ 4;
#X obj 280 447 /~ 4;
#X obj 330 447 /~ 4;
#X obj 380 447 /~ 4;
#X obj 430 447 /~ 4;
#X obj 480 447 /~ 4;
#X obj 530 447 /~ 4;
#X obj 580 446 /~ 4;
#X obj 704 319 t a a;
#X obj 704 342 list;
#X obj 704 291 csv_file;
#X msg 704 270 read data/tenji.txt;
#X msg 832 301 rewind;
#X obj 677 202 tgl 15 0 empty empty empty 17 7 0 10 -262144 -1 -1 1
1;
#X obj 704 369 packel 1 2 3 4;
#X floatatom 704 401 5 0 0 0 - - -;
#X obj 704 437 m_send;
#X floatatom 743 401 5 0 0 0 - - -;
#X floatatom 788 401 5 0 0 0 - - -;
#X floatatom 830 400 5 0 0 0 - - -;
#X obj 704 247 r StartReset;
#X obj 747 227 bng 15 250 50 0 empty empty empty 17 7 0 10 -262144
-1 -1;
#X obj 751 437 m_send;
#X obj 796 437 m_send;
#X obj 838 436 m_send;
#X obj 677 226 metro 500;
#X connect 0 0 90 0;
#X connect 1 0 2 0;
#X connect 2 0 3 0;
#X connect 2 0 4 0;
#X connect 5 0 0 0;
#X connect 6 1 7 0;
#X connect 7 0 79 0;
#X connect 7 0 80 0;
#X connect 8 0 68 0;
#X connect 9 0 69 0;
#X connect 10 0 70 0;
#X connect 11 0 71 0;
#X connect 12 0 72 0;
#X connect 13 0 18 0;
#X connect 14 0 19 0;
#X connect 15 0 21 0;
#X connect 16 0 20 0;
#X connect 17 0 22 0;
#X connect 19 0 8 0;
#X connect 20 0 10 0;
#X connect 21 0 9 0;
#X connect 22 0 11 0;
#X connect 23 0 12 0;
#X connect 24 0 73 0;
#X connect 25 0 74 0;
#X connect 26 0 75 0;
#X connect 27 0 76 0;
#X connect 28 0 77 0;
#X connect 29 0 78 0;
#X connect 30 0 24 0;
#X connect 31 0 25 0;
#X connect 32 0 27 0;
#X connect 33 0 26 0;
#X connect 34 0 28 0;
#X connect 35 0 29 0;
#X connect 36 0 30 0;
#X connect 37 0 31 0;
#X connect 38 0 33 0;
#X connect 39 0 32 0;
#X connect 40 0 34 0;
#X connect 41 0 35 0;
#X connect 42 0 13 0;
#X connect 43 0 14 0;
#X connect 44 0 15 0;
#X connect 45 0 16 0;
#X connect 46 0 17 0;
#X connect 47 0 66 0;
#X connect 48 0 36 0;
#X connect 49 0 37 0;
#X connect 50 0 38 0;
#X connect 51 0 39 0;
#X connect 52 0 40 0;
#X connect 53 0 41 0;
#X connect 66 0 23 0;
#X connect 68 0 91 0;
#X connect 69 0 92 0;
#X connect 70 0 93 0;
#X connect 71 0 89 0;
#X connect 72 0 94 0;
#X connect 73 0 95 0;
#X connect 74 0 96 0;
#X connect 75 0 97 0;
#X connect 76 0 98 0;
#X connect 77 0 99 0;
#X connect 78 0 88 0;
#X connect 79 0 54 0;
#X connect 79 1 55 0;
#X connect 79 2 56 0;
#X connect 79 3 57 0;
#X connect 79 4 58 0;
#X connect 79 5 59 0;
#X connect 79 6 60 0;
#X connect 79 7 61 0;
#X connect 79 8 62 0;
#X connect 79 9 63 0;
#X connect 79 10 64 0;
#X connect 79 11 65 0;
#X connect 80 0 82 0;
#X connect 80 1 83 0;
#X connect 80 2 84 0;
#X connect 85 0 81 0;
#X connect 86 0 81 1;
#X connect 87 0 81 2;
#X connect 88 0 111 0;
#X connect 89 0 104 0;
#X connect 90 0 100 0;
#X connect 91 0 101 0;
#X connect 92 0 102 0;
#X connect 93 0 103 0;
#X connect 94 0 105 0;
#X connect 95 0 106 0;
#X connect 96 0 107 0;
#X connect 97 0 108 0;
#X connect 98 0 109 0;
#X connect 99 0 110 0;
#X connect 100 0 67 0;
#X connect 101 0 67 0;
#X connect 102 0 67 0;
#X connect 103 0 67 0;
#X connect 104 0 67 0;
#X connect 105 0 67 0;
#X connect 106 0 67 0;
#X connect 107 0 67 0;
#X connect 108 0 67 0;
#X connect 109 0 67 0;
#X connect 110 0 67 0;
#X connect 111 0 67 0;
#X connect 112 0 113 0;
#X connect 113 0 118 0;
#X connect 114 0 112 0;
#X connect 114 2 116 0;
#X connect 115 0 114 0;
#X connect 116 0 114 0;
#X connect 117 0 129 0;
#X connect 118 0 119 0;
#X connect 118 1 121 0;
#X connect 118 2 122 0;
#X connect 118 3 123 0;
#X connect 119 0 120 0;
#X connect 121 0 126 0;
#X connect 122 0 127 0;
#X connect 123 0 128 0;
#X connect 124 0 115 0;
#X connect 125 0 114 0;
#X connect 129 0 114 0;
