#N canvas 503 22 690 448 10;
#X obj 14 39 loadbang;
#X obj 14 66 del 500;
#X msg 14 93 \; pd dsp 1;
#X obj 14 140 s StartReset;
#X obj 97 85 hsl 64 15 1 12 0 0 empty empty empty -2 -8 0 10 -3136
-262144 -4160 0 1;
#X floatatom 94 104 5 0 0 0 - - -, f 5;
#X obj 94 140 s volume;
#X obj 94 43 r StartReset;
#X text 13 13 Stone's Voice;
#X obj 129 261 m_key;
#X obj 177 43 m_receiveOSC;
#X obj 259 65 tgl 15 0 empty empty empty 17 7 0 10 -262144 -1 -1 0
1;
#X floatatom 259 151 5 0 0 0 - - -, f 5;
#X obj 259 125 counter 0 1 4;
#X obj 259 98 metro 150;
#X obj 250 184 sel 1 2 3 4;
#X obj 259 28 r StartReset;
#X floatatom 358 112 5 0 0 0 - - -, f 5;
#X obj 394 112 sel 1;
#X obj 338 151 bng 15 250 50 0 empty empty empty 17 7 0 10 -262144
-1 -1;
#X obj 466 150 bng 15 250 50 0 empty empty empty 17 7 0 10 -262144
-1 -1;
#X obj 409 150 bng 15 250 50 0 empty empty empty 17 7 0 10 -262144
-1 -1;
#X obj 226 212 s k9;
#X obj 256 212 s k10;
#X obj 286 212 s k11;
#X obj 316 212 s k12;
#X obj 394 90 unpack f;
#X obj 394 70 OSCroute /sound;
#X obj 31 262 m_kuma_key;
#X obj 394 29 dumpOSC 40001;
#X obj 454 175 s cross1;
#X obj 394 175 s cross0;
#X floatatom 488 112 5 0 0 0 - - -, f 5;
#X obj 524 112 sel 1;
#X obj 581 150 bng 15 250 50 0 empty empty empty 17 7 0 10 -262144
-1 -1;
#X obj 524 150 bng 15 250 50 0 empty empty empty 17 7 0 10 -262144
-1 -1;
#X obj 524 90 unpack f;
#X obj 524 70 OSCroute /sound;
#X obj 584 175 s cross1;
#X obj 524 175 s cross0;
#X obj 524 29 dumpOSC 40002;
#X text 130 238 sensor;
#X text 30 238 keyboard;
#X obj 556 209 r cross0;
#X obj 556 229 bng 15 250 50 0 empty empty empty 17 7 0 10 -262144
-1 -1;
#X obj 611 229 bng 15 250 50 0 empty empty empty 17 7 0 10 -262144
-1 -1;
#X obj 611 209 r cross1;
#X text 553 244 'a' key;
#X text 603 244 's' key;
#X obj 394 204 m_sound0;
#X obj 455 203 m_sound1;
#X msg 94 64 0.5;
#N canvas 540 39 642 388 AutoMusic 0;
#X floatatom 152 89 5 0 0 0 - - -, f 5;
#X obj 155 18 hsl 128 15 0 34 0 0 empty empty empty -2 -8 0 10 -262144
-1 -1 8509 1;
#X obj 152 62 % 5;
#X obj 393 72 / 5;
#X floatatom 393 119 5 0 0 0 - - -, f 5;
#X obj 393 92 int;
#X obj 152 111 sel 0 1 2 3 4;
#X obj 393 170 s Oct_A;
#X obj 393 140 + 1;
#X obj 25 123 / 100;
#X obj 25 145 * 34;
#X obj 25 96 random 100;
#X obj 25 32 tgl 15 0 empty empty empty 17 7 0 10 -262144 -1 -1 1 1
;
#X obj 152 38 t f f;
#X obj 152 203 + 0;
#X obj 182 203 + 0;
#X obj 212 203 + 0;
#X obj 242 203 + 0;
#X obj 272 203 + 0;
#X obj 305 179 r modulation;
#X obj 192 324 s modulation;
#X msg 152 284 0;
#X msg 192 284 1;
#X msg 232 284 2;
#X msg 272 284 3;
#X msg 312 284 4;
#X msg 352 284 5;
#X msg 392 284 6;
#X msg 432 284 7;
#X msg 472 284 8;
#X msg 512 284 9;
#X msg 552 284 10;
#X msg 592 284 11;
#X obj 23 10 inlet;
#X obj 152 257 outlet~;
#X obj 152 173 + 0;
#X obj 182 173 + 0;
#X obj 212 173 + 0;
#X obj 242 173 + 0;
#X obj 272 173 + 0;
#X obj 335 99 r Oct_A;
#X obj 335 120 * 12;
#X obj 392 229 Orgel2;
#X obj 152 229 Orgel2;
#X obj 213 229 Orgel2;
#X obj 272 229 Orgel2;
#X obj 332 229 Orgel2;
#X msg 152 140 0;
#X msg 182 140 2;
#X msg 212 140 5;
#X msg 242 140 7;
#X msg 272 140 9;
#X obj 26 54 metro 125;
#X connect 0 0 6 0;
#X connect 1 0 13 0;
#X connect 2 0 0 0;
#X connect 3 0 5 0;
#X connect 4 0 8 0;
#X connect 5 0 4 0;
#X connect 6 0 47 0;
#X connect 6 1 48 0;
#X connect 6 2 49 0;
#X connect 6 3 50 0;
#X connect 6 4 51 0;
#X connect 8 0 7 0;
#X connect 9 0 10 0;
#X connect 10 0 1 0;
#X connect 11 0 9 0;
#X connect 12 0 52 0;
#X connect 13 0 2 0;
#X connect 13 1 3 0;
#X connect 14 0 43 0;
#X connect 15 0 44 0;
#X connect 16 0 45 0;
#X connect 17 0 46 0;
#X connect 18 0 42 0;
#X connect 19 0 18 1;
#X connect 19 0 17 1;
#X connect 19 0 16 1;
#X connect 19 0 15 1;
#X connect 19 0 14 1;
#X connect 21 0 20 0;
#X connect 22 0 20 0;
#X connect 23 0 20 0;
#X connect 24 0 20 0;
#X connect 25 0 20 0;
#X connect 26 0 20 0;
#X connect 27 0 20 0;
#X connect 28 0 20 0;
#X connect 29 0 20 0;
#X connect 30 0 20 0;
#X connect 31 0 20 0;
#X connect 32 0 20 0;
#X connect 33 0 12 0;
#X connect 35 0 14 0;
#X connect 36 0 15 0;
#X connect 37 0 16 0;
#X connect 38 0 17 0;
#X connect 39 0 18 0;
#X connect 40 0 41 0;
#X connect 41 0 39 1;
#X connect 41 0 38 1;
#X connect 41 0 37 1;
#X connect 41 0 36 1;
#X connect 41 0 35 1;
#X connect 42 0 34 0;
#X connect 43 0 34 0;
#X connect 44 0 34 0;
#X connect 45 0 34 0;
#X connect 46 0 34 0;
#X connect 47 0 35 0;
#X connect 48 0 36 0;
#X connect 49 0 37 0;
#X connect 50 0 38 0;
#X connect 51 0 39 0;
#X connect 52 0 11 0;
#X restore 231 269 pd AutoMusic;
#X obj 231 244 tgl 15 0 empty empty empty 17 7 0 10 -262144 -1 -1 1
1;
#N canvas 395 193 450 300 delay_effect 0;
#X obj 105 120 vsl 15 32 0 1 0 1 empty empty delay 0 -9 0 10 -262144
-1 -1 800 1;
#X obj 158 68 inlet;
#X obj 248 176 *~;
#X obj 59 68 loadbang;
#X obj 115 68 inlet~;
#X obj 189 226 outlet~;
#X obj 248 124 delread~ \$0-delayA 500;
#X obj 249 205 delwrite~ \$0-delayA 1000;
#X connect 0 0 2 1;
#X connect 1 0 0 0;
#X connect 2 0 5 0;
#X connect 2 0 7 0;
#X connect 3 0 0 0;
#X connect 4 0 5 0;
#X connect 4 0 7 0;
#X connect 6 0 2 0;
#X coords 0 -1 1 1 85 60 2 100 100;
#X restore 330 245 pd delay_effect;
#N canvas 434 197 509 293 finalout 0;
#X obj 267 140 metro 20;
#X obj 267 70 tgl 15 0 empty empty empty 17 7 0 10 -262144 -1 -1 1
1;
#X obj 326 140 r~ Wave;
#X obj 267 44 loadbang;
#X obj 267 164 tabwrite~ \$0-out;
#X msg 275 95 \; pd dsp \$1;
#X text 340 101 dsp on;
#X obj 40 75 dac~;
#X obj 70 75 s~ Wave;
#X obj 109 136 cnv 15 60 40 empty empty empty 20 12 0 14 -262144 -66577
0;
#N canvas 0 22 450 278 (subpatch) 0;
#X array \$0-out 100 float 5;
#A 0 1.42239e-14 1.39692e-14 0 0 0 0 0 0 0 0 0 0 0 0 0 0 0 0 0 0 0
0 0 0 0 0 0 0 0 0 0 0 0 0 0 0 0 0 0 0 0 0 0 0 0 0 0 0 0 0 0 0 0 0 0
0 0 0 0 0 0 0 0 0 0 0 0 0 0 0 0 0 0 0 0 0 0 0 0 0 0 0 0 0 0 0 0 0 0
0 0 0 0 0 0 0 0 0 0 0;
#X coords 0 -1 99 1 60 40 2 0 0;
#X restore 110 136 graph;
#X obj 40 39 inlet~;
#X obj 82 39 inlet~;
#X text 103 102 LEFT;
#X text 146 102 RIGHT;
#X connect 0 0 4 0;
#X connect 1 0 0 0;
#X connect 1 0 5 0;
#X connect 2 0 4 0;
#X connect 3 0 1 0;
#X connect 11 0 7 0;
#X connect 11 0 8 0;
#X connect 12 0 7 1;
#X connect 12 0 8 0;
#X coords 0 -1 1 1 80 80 2 100 100;
#X restore 330 332 pd finalout;
#X connect 0 0 1 0;
#X connect 1 0 2 0;
#X connect 1 0 3 0;
#X connect 4 0 5 0;
#X connect 5 0 6 0;
#X connect 7 0 51 0;
#X connect 11 0 14 0;
#X connect 12 0 15 0;
#X connect 13 0 12 0;
#X connect 13 3 19 0;
#X connect 14 0 13 0;
#X connect 15 0 22 0;
#X connect 15 1 23 0;
#X connect 15 2 24 0;
#X connect 15 3 25 0;
#X connect 16 0 13 2;
#X connect 16 0 11 0;
#X connect 16 0 21 0;
#X connect 18 0 21 0;
#X connect 18 1 20 0;
#X connect 19 0 11 0;
#X connect 20 0 30 0;
#X connect 21 0 31 0;
#X connect 26 0 17 0;
#X connect 26 0 18 0;
#X connect 27 0 26 0;
#X connect 29 0 27 0;
#X connect 33 0 35 0;
#X connect 33 1 34 0;
#X connect 34 0 38 0;
#X connect 35 0 39 0;
#X connect 36 0 32 0;
#X connect 36 0 33 0;
#X connect 37 0 36 0;
#X connect 40 0 37 0;
#X connect 43 0 44 0;
#X connect 46 0 45 0;
#X connect 51 0 4 0;
#X connect 52 0 54 0;
#X connect 53 0 52 0;
#X connect 54 0 55 0;
#X connect 54 0 55 1;
