#N canvas 521 387 262 230 10;
#X obj 71 -6 inlet;
#X obj 153 -7 inlet;
#X obj 74 56 line~ 0 10;
#X obj 74 105 outlet~;
#X msg 71 22 0 100;
#X msg 153 22 1 100;
#X connect 0 0 4 0;
#X connect 1 0 5 0;
#X connect 2 0 3 0;
#X connect 4 0 2 0;
#X connect 5 0 2 0;
