#N canvas 465 85 1184 530 10;
#X obj 234 41 keyname;
#X obj 235 66 unpack s;
#X obj 235 86 sel q w e r t y u i o p [ ];
#X obj 123 87 sel v b n;
#X obj 77 169 onkai1;
#X obj 130 169 s o1;
#X obj 162 169 s o2;
#X obj 195 169 s o3;
#X obj 16 137 r o1;
#X obj 45 137 r o2;
#X obj 74 137 r o3;
#X obj 206 111 s u0;
#X obj 237 111 s u1;
#X obj 268 111 s u2;
#X obj 299 111 s u3;
#X obj 330 111 s u4;
#X obj 361 111 s u5;
#X obj 216 141 s u6;
#X obj 247 141 s u7;
#X obj 278 141 s u8;
#X obj 309 141 s u9;
#X obj 340 141 s u10;
#X obj 371 141 s u11;
#X obj 57 45 r StartReset;
#X connect 0 1 1 0;
#X connect 1 0 2 0;
#X connect 1 0 3 0;
#X connect 2 0 11 0;
#X connect 2 1 12 0;
#X connect 2 2 13 0;
#X connect 2 3 14 0;
#X connect 2 4 15 0;
#X connect 2 5 16 0;
#X connect 2 6 17 0;
#X connect 2 7 18 0;
#X connect 2 8 19 0;
#X connect 2 9 20 0;
#X connect 2 10 21 0;
#X connect 2 11 22 0;
#X connect 3 0 5 0;
#X connect 3 1 6 0;
#X connect 3 2 7 0;
#X connect 8 0 4 0;
#X connect 9 0 4 1;
#X connect 10 0 4 2;
#X connect 23 0 5 0;
