#N canvas 263 23 878 556 10;
#X floatatom 60 212 5 0 0 0 - - -;
#X floatatom 60 148 5 0 0 0 - - -;
#X floatatom 110 148 5 0 0 0 - - -;
#X floatatom 160 148 5 0 0 0 - - -;
#X floatatom 210 148 5 0 0 0 - - -;
#X floatatom 260 148 5 0 0 0 - - -;
#X floatatom 310 148 5 0 0 0 - - -;
#X msg 110 76 1;
#X msg 160 76 2;
#X msg 210 76 3;
#X msg 260 76 4;
#X obj 60 106 tabread onkai_1;
#X obj 110 126 tabread onkai_1;
#X obj 210 126 tabread onkai_1;
#X obj 160 106 tabread onkai_1;
#X obj 260 106 tabread onkai_1;
#X obj 310 126 tabread onkai_1;
#X floatatom 360 148 5 0 0 0 - - -;
#X floatatom 410 148 5 0 0 0 - - -;
#X floatatom 460 148 5 0 0 0 - - -;
#X floatatom 510 148 5 0 0 0 - - -;
#X floatatom 560 148 5 0 0 0 - - -;
#X floatatom 609 148 5 0 0 0 - - -;
#X obj 360 106 tabread onkai_1;
#X obj 410 126 tabread onkai_1;
#X obj 510 126 tabread onkai_1;
#X obj 460 106 tabread onkai_1;
#X obj 560 106 tabread onkai_1;
#X obj 609 126 tabread onkai_1;
#X msg 360 76 6;
#X msg 410 76 7;
#X msg 460 76 8;
#X msg 510 76 9;
#X msg 560 76 10;
#X msg 609 76 11;
#X msg 310 76 5;
#X obj 60 451 mathrax_soundout;
#X floatatom 110 212 5 0 0 0 - - -;
#X floatatom 160 212 5 0 0 0 - - -;
#X floatatom 210 212 5 0 0 0 - - -;
#X floatatom 260 212 5 0 0 0 - - -;
#X floatatom 310 212 5 0 0 0 - - -;
#X floatatom 360 212 5 0 0 0 - - -;
#X floatatom 410 212 5 0 0 0 - - -;
#X floatatom 460 212 5 0 0 0 - - -;
#X floatatom 510 212 5 0 0 0 - - -;
#X floatatom 560 212 5 0 0 0 - - -;
#X floatatom 610 212 5 0 0 0 - - -;
#X obj 260 397 /~ 1;
#X obj 310 397 /~ 1;
#X obj 360 397 /~ 1;
#X obj 410 397 /~ 1;
#X obj 460 397 /~ 1;
#X obj 510 397 /~ 1;
#X obj 560 397 /~ 1;
#X obj 610 397 /~ 1;
#X obj 210 397 /~ 1;
#X obj 160 397 /~ 1;
#X obj 110 397 /~ 1;
#X obj 60 397 /~ 1;
#X msg 60 76 0;
#X floatatom 660 148 5 0 0 0 - - -;
#X floatatom 709 148 5 0 0 0 - - -;
#X obj 660 106 tabread onkai_1;
#X obj 709 126 tabread onkai_1;
#X floatatom 660 212 5 0 0 0 - - -;
#X floatatom 710 212 5 0 0 0 - - -;
#X obj 660 397 /~ 1;
#X obj 710 397 /~ 1;
#X msg 660 76 12;
#X msg 709 76 13;
#X obj 60 189 - 0;
#X obj 110 189 - 0;
#X obj 160 189 - 0;
#X obj 210 189 - 0;
#X obj 260 189 - 0;
#X obj 310 189 - 0;
#X obj 360 189 - 0;
#X obj 410 189 - 0;
#X obj 460 189 - 0;
#X obj 510 189 - 0;
#X obj 560 189 - 0;
#X obj 610 189 - 0;
#X obj 660 189 - 0;
#X obj 710 189 - 0;
#X obj 60 272 OrgelP;
#X obj 110 272 OrgelP;
#X obj 160 272 OrgelP;
#X obj 210 273 OrgelP;
#X obj 260 272 OrgelP;
#X obj 310 272 OrgelP;
#X obj 360 272 OrgelP;
#X obj 410 272 OrgelP;
#X obj 460 272 OrgelP;
#X obj 510 272 OrgelP;
#X obj 560 272 OrgelP;
#X obj 610 272 OrgelP;
#X obj 660 272 OrgelP;
#X obj 710 272 OrgelP;
#X obj 60 235 t f b;
#X obj 110 235 t f b;
#X obj 160 235 t f b;
#X obj 210 235 t f b;
#X obj 260 235 t f b;
#X obj 310 235 t f b;
#X obj 360 235 t f b;
#X obj 410 235 t f b;
#X obj 460 235 t f b;
#X obj 510 235 t f b;
#X obj 560 235 t f b;
#X obj 610 235 t f b;
#X obj 660 235 t f b;
#X obj 710 235 t f b;
#X obj 60 347 /~ 4;
#X obj 110 347 /~ 4;
#X obj 81 297 random 4;
#X obj 160 347 /~ 4;
#X obj 131 297 random 4;
#X obj 210 347 /~ 4;
#X obj 181 297 random 4;
#X obj 231 297 random 4;
#X obj 260 347 /~ 4;
#X obj 281 297 random 4;
#X obj 310 347 /~ 4;
#X obj 331 297 random 4;
#X obj 360 347 /~ 4;
#X obj 381 297 random 4;
#X obj 410 347 /~ 4;
#X obj 431 297 random 4;
#X obj 460 347 /~ 4;
#X obj 481 297 random 4;
#X obj 510 347 /~ 4;
#X obj 531 297 random 4;
#X obj 560 347 /~ 4;
#X obj 581 297 random 4;
#X obj 610 347 /~ 4;
#X obj 631 297 random 4;
#X obj 660 347 /~ 4;
#X obj 681 297 random 4;
#X obj 710 347 /~ 4;
#X obj 731 297 random 4;
#X obj 81 320 + 1;
#X obj 131 320 + 1;
#X obj 181 320 + 1;
#X obj 231 320 + 1;
#X obj 281 320 + 1;
#X obj 331 320 + 1;
#X obj 381 320 + 1;
#X obj 431 320 + 1;
#X obj 481 320 + 1;
#X obj 531 320 + 1;
#X obj 581 320 + 1;
#X obj 631 320 + 1;
#X obj 681 320 + 1;
#X obj 731 320 + 1;
#X obj 731 169 r offset_kuma;
#X obj 731 369 r volume_kuma;
#X obj 60 53 r u0;
#X obj 110 53 r u1;
#X obj 160 53 r u2;
#X obj 210 53 r u3;
#X obj 260 53 r u4;
#X obj 310 53 r u5;
#X obj 360 53 r u6;
#X obj 410 53 r u7;
#X obj 460 53 r u8;
#X obj 510 53 r u9;
#X obj 560 53 r u10;
#X obj 610 53 r u11;
#X obj 660 53 r u12;
#X obj 710 53 r u13;
#X connect 0 0 99 0;
#X connect 1 0 71 0;
#X connect 2 0 72 0;
#X connect 3 0 73 0;
#X connect 4 0 74 0;
#X connect 5 0 75 0;
#X connect 6 0 76 0;
#X connect 7 0 12 0;
#X connect 8 0 14 0;
#X connect 9 0 13 0;
#X connect 10 0 15 0;
#X connect 11 0 1 0;
#X connect 12 0 2 0;
#X connect 13 0 4 0;
#X connect 14 0 3 0;
#X connect 15 0 5 0;
#X connect 16 0 6 0;
#X connect 17 0 77 0;
#X connect 18 0 78 0;
#X connect 19 0 79 0;
#X connect 20 0 80 0;
#X connect 21 0 81 0;
#X connect 22 0 82 0;
#X connect 23 0 17 0;
#X connect 24 0 18 0;
#X connect 25 0 20 0;
#X connect 26 0 19 0;
#X connect 27 0 21 0;
#X connect 28 0 22 0;
#X connect 29 0 23 0;
#X connect 30 0 24 0;
#X connect 31 0 26 0;
#X connect 32 0 25 0;
#X connect 33 0 27 0;
#X connect 34 0 28 0;
#X connect 35 0 16 0;
#X connect 37 0 100 0;
#X connect 38 0 101 0;
#X connect 39 0 102 0;
#X connect 40 0 103 0;
#X connect 41 0 104 0;
#X connect 42 0 105 0;
#X connect 43 0 106 0;
#X connect 44 0 107 0;
#X connect 45 0 108 0;
#X connect 46 0 109 0;
#X connect 47 0 110 0;
#X connect 48 0 36 0;
#X connect 49 0 36 0;
#X connect 50 0 36 0;
#X connect 51 0 36 0;
#X connect 52 0 36 0;
#X connect 53 0 36 0;
#X connect 54 0 36 0;
#X connect 55 0 36 0;
#X connect 56 0 36 0;
#X connect 57 0 36 0;
#X connect 58 0 36 0;
#X connect 59 0 36 0;
#X connect 60 0 11 0;
#X connect 61 0 83 0;
#X connect 62 0 84 0;
#X connect 63 0 61 0;
#X connect 64 0 62 0;
#X connect 65 0 111 0;
#X connect 66 0 112 0;
#X connect 67 0 36 0;
#X connect 68 0 36 0;
#X connect 69 0 63 0;
#X connect 70 0 64 0;
#X connect 71 0 0 0;
#X connect 72 0 37 0;
#X connect 73 0 38 0;
#X connect 74 0 39 0;
#X connect 75 0 40 0;
#X connect 76 0 41 0;
#X connect 77 0 42 0;
#X connect 78 0 43 0;
#X connect 79 0 44 0;
#X connect 80 0 45 0;
#X connect 81 0 46 0;
#X connect 82 0 47 0;
#X connect 83 0 65 0;
#X connect 84 0 66 0;
#X connect 85 0 113 0;
#X connect 86 0 114 0;
#X connect 87 0 116 0;
#X connect 88 0 118 0;
#X connect 89 0 121 0;
#X connect 90 0 123 0;
#X connect 91 0 125 0;
#X connect 92 0 127 0;
#X connect 93 0 129 0;
#X connect 94 0 131 0;
#X connect 95 0 133 0;
#X connect 96 0 135 0;
#X connect 97 0 137 0;
#X connect 98 0 139 0;
#X connect 99 0 85 0;
#X connect 99 1 115 0;
#X connect 100 0 86 0;
#X connect 100 1 117 0;
#X connect 101 0 87 0;
#X connect 101 1 119 0;
#X connect 102 0 88 0;
#X connect 102 1 120 0;
#X connect 103 0 89 0;
#X connect 103 1 122 0;
#X connect 104 0 90 0;
#X connect 104 1 124 0;
#X connect 105 0 91 0;
#X connect 105 1 126 0;
#X connect 106 0 92 0;
#X connect 106 1 128 0;
#X connect 107 0 93 0;
#X connect 107 1 130 0;
#X connect 108 0 94 0;
#X connect 108 1 132 0;
#X connect 109 0 95 0;
#X connect 109 1 134 0;
#X connect 110 0 96 0;
#X connect 110 1 136 0;
#X connect 111 0 97 0;
#X connect 111 1 136 1;
#X connect 112 0 98 0;
#X connect 112 1 140 0;
#X connect 113 0 59 0;
#X connect 114 0 58 0;
#X connect 115 0 141 0;
#X connect 116 0 57 0;
#X connect 117 0 142 0;
#X connect 118 0 56 0;
#X connect 119 0 143 0;
#X connect 120 0 144 0;
#X connect 121 0 48 0;
#X connect 122 0 145 0;
#X connect 123 0 49 0;
#X connect 124 0 146 0;
#X connect 125 0 50 0;
#X connect 126 0 147 0;
#X connect 127 0 51 0;
#X connect 128 0 148 0;
#X connect 129 0 52 0;
#X connect 130 0 149 0;
#X connect 131 0 53 0;
#X connect 132 0 150 0;
#X connect 133 0 54 0;
#X connect 134 0 151 0;
#X connect 135 0 55 0;
#X connect 136 0 152 0;
#X connect 137 0 67 0;
#X connect 138 0 153 0;
#X connect 139 0 68 0;
#X connect 140 0 154 0;
#X connect 141 0 113 1;
#X connect 142 0 114 1;
#X connect 143 0 116 1;
#X connect 144 0 118 1;
#X connect 145 0 121 1;
#X connect 146 0 123 1;
#X connect 147 0 125 1;
#X connect 148 0 127 1;
#X connect 149 0 129 1;
#X connect 150 0 131 1;
#X connect 151 0 133 1;
#X connect 152 0 135 1;
#X connect 153 0 137 1;
#X connect 154 0 139 1;
#X connect 155 0 84 1;
#X connect 155 0 83 1;
#X connect 155 0 82 1;
#X connect 155 0 81 1;
#X connect 155 0 80 1;
#X connect 155 0 79 1;
#X connect 155 0 78 1;
#X connect 155 0 77 1;
#X connect 155 0 76 1;
#X connect 155 0 75 1;
#X connect 155 0 74 1;
#X connect 155 0 73 1;
#X connect 155 0 72 1;
#X connect 155 0 71 1;
#X connect 156 0 59 1;
#X connect 156 0 68 1;
#X connect 156 0 67 1;
#X connect 156 0 55 1;
#X connect 156 0 54 1;
#X connect 156 0 53 1;
#X connect 156 0 52 1;
#X connect 156 0 51 1;
#X connect 156 0 50 1;
#X connect 156 0 49 1;
#X connect 156 0 48 1;
#X connect 156 0 56 1;
#X connect 156 0 57 1;
#X connect 156 0 58 1;
#X connect 157 0 60 0;
#X connect 158 0 7 0;
#X connect 159 0 8 0;
#X connect 160 0 9 0;
#X connect 161 0 10 0;
#X connect 162 0 35 0;
#X connect 163 0 29 0;
#X connect 164 0 30 0;
#X connect 165 0 31 0;
#X connect 166 0 32 0;
#X connect 167 0 33 0;
#X connect 168 0 34 0;
#X connect 169 0 69 0;
#X connect 170 0 70 0;
