#N canvas -2 100 1184 530 10;
#X obj 67 76 keyname;
#X obj 68 101 unpack s;
#X obj 39 146 s k0;
#X obj 70 146 s k1;
#X obj 101 146 s k2;
#X obj 132 146 s k3;
#X obj 163 146 s k4;
#X obj 194 146 s k5;
#X obj 49 176 s k6;
#X obj 80 176 s k7;
#X obj 111 176 s k8;
#X obj 142 176 s k9;
#X obj 173 176 s k10;
#X obj 204 176 s k11;
#X obj 244 177 s cross0;
#X obj 298 177 s cross1;
#X obj 68 121 sel q w e r t y u i o p [ ] a s;
#X connect 0 1 1 0;
#X connect 1 0 16 0;
#X connect 16 0 2 0;
#X connect 16 1 3 0;
#X connect 16 2 4 0;
#X connect 16 3 5 0;
#X connect 16 4 6 0;
#X connect 16 5 7 0;
#X connect 16 6 8 0;
#X connect 16 7 9 0;
#X connect 16 8 10 0;
#X connect 16 9 11 0;
#X connect 16 10 12 0;
#X connect 16 11 13 0;
#X connect 16 12 14 0;
#X connect 16 13 15 0;
