#N canvas 177 290 856 300 10;
#X obj 232 88 OSCroute /pd;
#X obj 232 158 int;
#X obj 232 132 / 10;
#X obj 232 205 s touch;
#X obj 232 184 + 0;
#X obj 138 152 r StartReset;
#X obj 78 44 dumpOSC 3001;
#X obj 78 70 OSCroute /sound;
#X obj 78 153 sel 0 1;
#X obj 76 178 s o1;
#X obj 108 178 s o2;
#X obj 140 178 s o1;
#X obj 232 63 dumpOSC 3000;
#X obj 292 152 s k0;
#X obj 323 152 s k1;
#X obj 354 152 s k2;
#X obj 385 152 s k3;
#X obj 416 152 s k4;
#X obj 447 152 s k5;
#X obj 302 182 s k6;
#X obj 333 182 s k7;
#X obj 364 182 s k8;
#X obj 395 182 s k9;
#X obj 426 182 s k10;
#X obj 462 182 s k11;
#X obj 321 63 r touch;
#X obj 553 118 s o1;
#X obj 585 118 s o2;
#X obj 618 118 s o3;
#X obj 553 64 sel 50 51 52;
#X floatatom 337 107 5 0 0 0 - - -;
#X obj 321 127 sel 0 1 2 3 4 5 6 7 8 9 10 11 12 13;
#X obj 497 182 s k12;
#X obj 532 182 s k13;
#X obj 78 90 unpack f;
#X obj 78 123 int;
#X obj 232 108 unpack f;
#X connect 0 0 36 0;
#X connect 1 0 4 0;
#X connect 2 0 1 0;
#X connect 4 0 3 0;
#X connect 5 0 11 0;
#X connect 6 0 7 0;
#X connect 7 0 34 0;
#X connect 8 0 9 0;
#X connect 8 1 10 0;
#X connect 12 0 0 0;
#X connect 25 0 29 0;
#X connect 25 0 30 0;
#X connect 25 0 31 0;
#X connect 29 0 26 0;
#X connect 29 1 27 0;
#X connect 29 2 28 0;
#X connect 31 0 13 0;
#X connect 31 1 14 0;
#X connect 31 2 15 0;
#X connect 31 3 16 0;
#X connect 31 4 17 0;
#X connect 31 5 18 0;
#X connect 31 6 19 0;
#X connect 31 7 20 0;
#X connect 31 8 21 0;
#X connect 31 9 22 0;
#X connect 31 10 23 0;
#X connect 31 11 24 0;
#X connect 31 12 32 0;
#X connect 31 13 33 0;
#X connect 34 0 35 0;
#X connect 35 0 8 0;
#X connect 36 0 2 0;
