#N canvas 0 22 341 176 10;
#X obj 58 66 sel 0 1 2 3 4 5 6 7;
#X obj 40 98 s k0;
#X obj 71 98 s k1;
#X obj 102 98 s k2;
#X obj 133 98 s k3;
#X obj 164 98 s k4;
#X obj 195 98 s k5;
#X obj 226 98 s k6;
#X obj 257 98 s k7;
#X obj 61 26 inlet;
#X connect 0 0 1 0;
#X connect 0 1 2 0;
#X connect 0 2 3 0;
#X connect 0 3 4 0;
#X connect 0 4 5 0;
#X connect 0 5 6 0;
#X connect 0 6 7 0;
#X connect 0 7 8 0;
#X connect 9 0 0 0;
