#N canvas 0 94 1184 530 10;
#X floatatom -865 159 5 0 0 0 - - -;
#X obj -865 87 tabread onkai_1;
#X obj -864 281 mathrax_soundout;
#X floatatom -864 213 5 0 0 0 - - -;
#X obj -864 258 /~ 12;
#X obj -864 233 Orgel;
#X obj -865 14 inlet;
#X connect 0 0 3 0;
#X connect 1 0 0 0;
#X connect 3 0 5 0;
#X connect 4 0 2 0;
#X connect 5 0 4 0;
#X connect 6 0 1 0;
