#N canvas 52 120 946 439 10;
#X obj 52 60 bng 15 250 50 0 empty empty empty 17 7 0 10 -262144 -1
-1;
#X obj 52 294 t f b;
#N canvas 0 22 450 300 (subpatch) 0;
#X array onkai_1 50 float 3;
#A 0 56 58 61 63 66 68 70 73 75 78 80 82 85 87 90 90 40 43 45 47 50
52 55 57 59 62 64 67 69 71 74 76 79 81 83 86 88 91 93 95 98 100 103
105 107 110 112 115 117 119;
#X coords 0 0 50 127 54 64 1 0 0;
#X restore 156 324 graph;
#X obj 52 82 t b b;
#X obj 160 60 bng 15 250 50 0 empty empty empty 17 7 0 10 -262144 -1
-1;
#X obj 160 82 t b b;
#X obj 451 60 bng 15 250 50 0 empty empty empty 17 7 0 10 -262144 -1
-1;
#X obj 451 82 t b b;
#X obj 52 371 tabwrite onkai_1;
#X obj 52 23 inlet;
#X obj 160 23 inlet;
#X obj 451 23 inlet;
#X msg 451 181 2 \, 4 \, 7 \, 9 \, 11 \, 14 \, 16 \, 19 \, 21 \, 23
\, 26 \, 28 \, 31 \, 33 \, 35 \, 38 \, 40 \, 43 \, 45 \, 47 \, 50 \,
52 \, 55 \, 57 \, 59 \, 62 \, 64 \, 67 \, 69 \, 71 \, 74 \, 76 \, 79
\, 81 \, 83 \, 86 \, 88 \, 91 \, 93 \, 95 \, 98 \, 100 \, 103 \, 105
\, 107 \, 110 \, 112 \, 115 \, 117 \, 119 \,;
#X obj 62 319 counter 0 51;
#X msg 160 128 49 \, 51 \, 53 \, 54 \, 56 \, 60 \, 61 \, 63 \, 65 \,
66 \, 68 \, 72 \, 75 \, 77;
#X msg 52 182 56 \, 58 \, 61 \, 63 \, 66 \, 68 \, 70 \, 73 \, 75 \,
78 \, 80 \, 82 \, 85 \, 87 \, 90;
#X connect 0 0 3 0;
#X connect 1 0 8 0;
#X connect 1 1 13 0;
#X connect 3 0 15 0;
#X connect 3 1 13 2;
#X connect 4 0 5 0;
#X connect 5 0 14 0;
#X connect 5 1 13 2;
#X connect 6 0 7 0;
#X connect 7 0 12 0;
#X connect 7 1 13 2;
#X connect 9 0 0 0;
#X connect 10 0 4 0;
#X connect 11 0 6 0;
#X connect 12 0 1 0;
#X connect 13 0 8 1;
#X connect 14 0 1 0;
#X connect 15 0 1 0;
