#N canvas 221 101 595 550 10;
#X obj 86 17 inlet;
#X obj 86 308 *~;
#X obj 116 284 line~;
#X obj 116 122 bng 15 250 50 0 empty empty empty 17 7 0 10 -262144
-1 -1;
#X obj 86 99 t f b;
#X obj 86 121 mtof;
#X obj 163 483 outlet~;
#X obj 163 380 +~;
#X obj 163 401 +~;
#X obj 206 308 *~;
#X obj 236 284 line~;
#X obj 237 139 bng 15 250 50 0 empty empty empty 17 7 0 10 -262144
-1 -1;
#X obj 206 143 mtof;
#X obj 436 308 *~;
#X obj 466 284 line~;
#X obj 466 103 bng 15 250 50 0 empty empty empty 17 7 0 10 -262144
-1 -1;
#X obj 436 80 t f b;
#X obj 436 102 mtof;
#X msg 236 232 1 1;
#X msg 116 232 1 1;
#X obj 499 231 del 5;
#X msg 466 232 1 2;
#X obj 434 54 - 24;
#X msg 149 252 0 50;
#X obj 313 282 line~;
#X obj 314 137 bng 15 250 50 0 empty empty empty 17 7 0 10 -262144
-1 -1;
#X msg 313 230 1 2;
#X obj 346 229 del 4;
#X floatatom 206 166 5 0 0 0 - - -;
#X obj 206 87 t f b;
#X floatatom 436 149 5 0 0 0 - - -;
#X floatatom 86 149 5 0 0 0 - - -;
#X floatatom 125 77 5 0 0 0 - - -;
#X floatatom 225 61 5 0 0 0 - - -;
#X obj 163 460 *~;
#X obj 86 46 - 12;
#X obj 242 423 m_crossfade;
#X obj 242 402 r cross1;
#X obj 303 402 r cross0;
#X obj 86 184 phasor~;
#X obj 149 231 del 1;
#X obj 269 231 del 2;
#X msg 269 252 0 50;
#X msg 346 250 0 20;
#X obj 206 195 osc~;
#X obj 206 30 + 24;
#X msg 499 252 0 10;
#X obj 436 194 osc~;
#X obj 163 425 /~ 6;
#X connect 0 0 22 0;
#X connect 0 0 35 0;
#X connect 0 0 45 0;
#X connect 1 0 7 0;
#X connect 2 0 1 1;
#X connect 3 0 19 0;
#X connect 3 0 40 0;
#X connect 4 0 5 0;
#X connect 4 1 3 0;
#X connect 5 0 31 0;
#X connect 7 0 8 0;
#X connect 8 0 48 0;
#X connect 9 0 7 1;
#X connect 10 0 9 1;
#X connect 11 0 18 0;
#X connect 11 0 41 0;
#X connect 12 0 28 0;
#X connect 13 0 8 1;
#X connect 14 0 13 1;
#X connect 15 0 21 0;
#X connect 15 0 20 0;
#X connect 16 0 17 0;
#X connect 16 1 15 0;
#X connect 17 0 30 0;
#X connect 18 0 10 0;
#X connect 19 0 2 0;
#X connect 20 0 46 0;
#X connect 21 0 14 0;
#X connect 22 0 16 0;
#X connect 23 0 2 0;
#X connect 24 0 9 1;
#X connect 25 0 26 0;
#X connect 25 0 27 0;
#X connect 26 0 24 0;
#X connect 27 0 43 0;
#X connect 28 0 44 0;
#X connect 29 0 12 0;
#X connect 29 1 11 0;
#X connect 29 1 25 0;
#X connect 30 0 47 0;
#X connect 31 0 39 0;
#X connect 34 0 6 0;
#X connect 35 0 4 0;
#X connect 35 0 32 0;
#X connect 36 0 34 1;
#X connect 37 0 36 0;
#X connect 38 0 36 1;
#X connect 39 0 1 0;
#X connect 40 0 23 0;
#X connect 41 0 42 0;
#X connect 42 0 10 0;
#X connect 43 0 24 0;
#X connect 44 0 9 0;
#X connect 45 0 29 0;
#X connect 45 0 33 0;
#X connect 46 0 14 0;
#X connect 47 0 13 0;
#X connect 48 0 34 0;
