#N canvas 78 137 847 500 10;
#X obj 76 33 inlet;
#X obj 76 338 *~;
#X obj 106 314 line~;
#X obj 106 153 bng 15 250 50 0 empty empty empty 17 7 0 10 -262144
-1 -1;
#X obj 76 130 t f b;
#X obj 76 152 mtof;
#X obj 92 389 +~;
#X obj 92 410 +~;
#X obj 195 340 *~;
#X obj 225 316 line~;
#X obj 225 201 bng 15 250 50 0 empty empty empty 17 7 0 10 -262144
-1 -1;
#X obj 195 134 mtof;
#X msg 225 224 1 1;
#X obj 307 338 *~;
#X obj 337 314 line~;
#X obj 337 199 bng 15 250 50 0 empty empty empty 17 7 0 10 -262144
-1 -1;
#X msg 337 222 1 1;
#X obj 195 362 +~;
#X msg 106 222 1 1;
#X obj 195 112 t f b;
#X obj 654 129 *~ 2;
#X obj 684 129 *~ 2;
#X obj 648 161 +~ -1;
#X obj 688 161 +~ 1;
#X obj 645 192 clip~ 0 1;
#X obj 705 192 clip~ 0 1;
#X obj 691 213 +~;
#X obj 725 212 line~;
#X msg 725 120 1 1;
#X obj 758 119 del 5;
#X msg 758 140 0 50;
#X obj 679 246 *~;
#X obj 654 72 mtof;
#X obj 654 50 t f b;
#X obj 721 86 bng 15 250 50 0 empty empty empty 17 7 0 10 -262144 -1
-1;
#X obj 183 473 outlet~;
#X obj 183 450 *~;
#X obj 244 420 m_crossfade;
#X obj 371 221 del 2;
#X obj 139 221 del 2;
#X obj 258 223 del 30;
#X obj 654 22 + 12;
#X obj 222 392 r cross0;
#X obj 289 392 r cross1;
#X obj 307 198 phasor~;
#X obj 192 182 phasor~;
#X obj 195 84 - 12;
#X msg 258 244 0 250;
#X obj 76 102 - 0;
#X obj 76 174 phasor~;
#X obj 92 455 /~ 12;
#X obj 654 93 osc~;
#X msg 370 242 0 500;
#X msg 139 242 0 100;
#X obj 308 176 + 2;
#X obj 438 221 +~ -1;
#X obj 478 221 +~ 1;
#X obj 435 252 clip~ 0 1;
#X obj 495 252 clip~ 0 1;
#X obj 481 273 +~;
#X obj 515 272 line~;
#X msg 515 180 1 1;
#X obj 548 179 del 5;
#X obj 469 306 *~;
#X obj 444 132 mtof;
#X obj 444 110 t f b;
#X obj 511 146 bng 15 250 50 0 empty empty empty 17 7 0 10 -262144
-1 -1;
#X obj 444 153 osc~;
#X obj 92 431 +~;
#X msg 548 200 0 500;
#X obj 444 82 + 0;
#X obj 422 189 *~ 10;
#X obj 474 189 *~ 10;
#X connect 0 0 41 0;
#X connect 0 0 46 0;
#X connect 0 0 48 0;
#X connect 0 0 70 0;
#X connect 1 0 6 0;
#X connect 2 0 1 1;
#X connect 3 0 18 0;
#X connect 3 0 39 0;
#X connect 4 0 5 0;
#X connect 4 1 3 0;
#X connect 5 0 49 0;
#X connect 6 0 7 0;
#X connect 7 0 68 0;
#X connect 8 0 17 0;
#X connect 9 0 8 1;
#X connect 10 0 12 0;
#X connect 10 0 40 0;
#X connect 11 0 45 0;
#X connect 11 0 54 0;
#X connect 12 0 9 0;
#X connect 13 0 17 1;
#X connect 14 0 13 1;
#X connect 15 0 16 0;
#X connect 15 0 38 0;
#X connect 16 0 14 0;
#X connect 17 0 6 1;
#X connect 18 0 2 0;
#X connect 19 0 11 0;
#X connect 19 1 10 0;
#X connect 19 1 15 0;
#X connect 20 0 22 0;
#X connect 21 0 23 0;
#X connect 22 0 24 0;
#X connect 23 0 25 0;
#X connect 24 0 26 0;
#X connect 25 0 26 1;
#X connect 26 0 31 0;
#X connect 27 0 31 1;
#X connect 28 0 27 0;
#X connect 29 0 30 0;
#X connect 30 0 27 0;
#X connect 31 0 7 1;
#X connect 32 0 51 0;
#X connect 33 0 32 0;
#X connect 33 1 34 0;
#X connect 34 0 28 0;
#X connect 34 0 29 0;
#X connect 36 0 35 0;
#X connect 37 0 36 1;
#X connect 38 0 52 0;
#X connect 39 0 53 0;
#X connect 40 0 47 0;
#X connect 41 0 33 0;
#X connect 42 0 37 0;
#X connect 43 0 37 1;
#X connect 44 0 13 0;
#X connect 45 0 8 0;
#X connect 46 0 19 0;
#X connect 47 0 9 0;
#X connect 48 0 4 0;
#X connect 49 0 1 0;
#X connect 50 0 36 0;
#X connect 51 0 20 0;
#X connect 51 0 21 0;
#X connect 52 0 14 0;
#X connect 53 0 2 0;
#X connect 54 0 44 0;
#X connect 55 0 57 0;
#X connect 56 0 58 0;
#X connect 57 0 59 0;
#X connect 58 0 59 1;
#X connect 59 0 63 0;
#X connect 60 0 63 1;
#X connect 61 0 60 0;
#X connect 62 0 69 0;
#X connect 63 0 68 1;
#X connect 64 0 67 0;
#X connect 65 0 64 0;
#X connect 65 1 66 0;
#X connect 66 0 61 0;
#X connect 66 0 62 0;
#X connect 67 0 71 0;
#X connect 67 0 72 0;
#X connect 68 0 50 0;
#X connect 69 0 60 0;
#X connect 70 0 65 0;
#X connect 71 0 55 0;
#X connect 72 0 56 0;
