#N canvas 260 242 319 354 10;
#X obj 46 28 inlet;
#X obj 46 201 *~;
#X obj 46 51 t f b;
#X obj 46 78 mtof;
#X obj 46 291 outlet~;
#X obj 90 173 line~;
#X obj 90 79 bng 15 250 50 0 empty empty empty 17 7 0 10 -262144 -1
-1;
#X obj 136 110 del 100;
#X msg 90 110 1 50;
#X msg 136 130 0 200;
#X obj 46 100 phasor~;
#X obj 173 184 r cross1;
#X obj 237 184 r cross0;
#X obj 46 262 *~;
#X obj 174 212 m_crossfade;
#X connect 0 0 2 0;
#X connect 1 0 13 0;
#X connect 2 0 3 0;
#X connect 2 1 6 0;
#X connect 3 0 10 0;
#X connect 5 0 1 1;
#X connect 6 0 8 0;
#X connect 6 0 7 0;
#X connect 7 0 9 0;
#X connect 8 0 5 0;
#X connect 9 0 5 0;
#X connect 10 0 1 0;
#X connect 11 0 14 0;
#X connect 12 0 14 1;
#X connect 13 0 4 0;
#X connect 14 0 13 1;
