#N canvas 80 131 847 500 10;
#X obj 76 33 inlet;
#X obj 76 338 *~;
#X obj 106 314 line~;
#X obj 106 153 bng 15 250 50 0 empty empty empty 17 7 0 10 -262144
-1 -1;
#X obj 76 130 t f b;
#X obj 76 152 mtof;
#X obj 92 389 +~;
#X obj 92 410 +~;
#X obj 195 340 *~;
#X obj 225 316 line~;
#X obj 225 201 bng 15 250 50 0 empty empty empty 17 7 0 10 -262144
-1 -1;
#X obj 195 134 mtof;
#X msg 225 224 1 1;
#X obj 307 338 *~;
#X obj 337 314 line~;
#X obj 337 199 bng 15 250 50 0 empty empty empty 17 7 0 10 -262144
-1 -1;
#X msg 337 222 1 1;
#X obj 195 362 +~;
#X obj 308 176 + 4;
#X msg 106 222 1 1;
#X obj 195 112 t f b;
#X msg 139 242 0 100;
#X msg 370 242 0 10;
#X obj 654 93 phasor~;
#X obj 654 129 *~ 2;
#X obj 684 129 *~ 2;
#X obj 648 161 +~ -1;
#X obj 688 161 +~ 1;
#X obj 645 192 clip~ 0 1;
#X obj 705 192 clip~ 0 1;
#X obj 691 213 +~;
#X obj 725 212 line~;
#X msg 725 120 1 1;
#X obj 758 119 del 5;
#X msg 758 140 0 50;
#X obj 679 246 *~;
#X obj 654 72 mtof;
#X obj 654 50 t f b;
#X obj 721 86 bng 15 250 50 0 empty empty empty 17 7 0 10 -262144 -1
-1;
#X obj 183 473 outlet~;
#X obj 183 450 *~;
#X obj 244 420 m_crossfade;
#X obj 371 221 del 2;
#X obj 139 221 del 2;
#X msg 258 244 0 250;
#X obj 258 223 del 30;
#X obj 76 102 - 24;
#X obj 195 84 + 24;
#X obj 654 22 + 12;
#X obj 222 392 r cross0;
#X obj 289 392 r cross1;
#X obj 92 435 /~ 24;
#X obj 76 174 phasor~;
#X obj 192 183 phasor~;
#X obj 307 198 phasor~;
#X connect 0 0 46 0;
#X connect 0 0 47 0;
#X connect 0 0 48 0;
#X connect 1 0 6 0;
#X connect 2 0 1 1;
#X connect 3 0 19 0;
#X connect 3 0 43 0;
#X connect 4 0 5 0;
#X connect 4 1 3 0;
#X connect 5 0 52 0;
#X connect 6 0 7 0;
#X connect 7 0 51 0;
#X connect 8 0 17 0;
#X connect 9 0 8 1;
#X connect 10 0 12 0;
#X connect 10 0 45 0;
#X connect 11 0 18 0;
#X connect 11 0 53 0;
#X connect 12 0 9 0;
#X connect 13 0 17 1;
#X connect 14 0 13 1;
#X connect 15 0 16 0;
#X connect 15 0 42 0;
#X connect 16 0 14 0;
#X connect 17 0 6 1;
#X connect 18 0 54 0;
#X connect 19 0 2 0;
#X connect 20 0 11 0;
#X connect 20 1 10 0;
#X connect 20 1 15 0;
#X connect 21 0 2 0;
#X connect 22 0 14 0;
#X connect 23 0 24 0;
#X connect 23 0 25 0;
#X connect 24 0 26 0;
#X connect 25 0 27 0;
#X connect 26 0 28 0;
#X connect 27 0 29 0;
#X connect 28 0 30 0;
#X connect 29 0 30 1;
#X connect 30 0 35 0;
#X connect 31 0 35 1;
#X connect 32 0 31 0;
#X connect 33 0 34 0;
#X connect 34 0 31 0;
#X connect 35 0 7 1;
#X connect 36 0 23 0;
#X connect 37 0 36 0;
#X connect 37 1 38 0;
#X connect 38 0 32 0;
#X connect 38 0 33 0;
#X connect 40 0 39 0;
#X connect 41 0 40 1;
#X connect 42 0 22 0;
#X connect 43 0 21 0;
#X connect 44 0 9 0;
#X connect 45 0 44 0;
#X connect 46 0 4 0;
#X connect 47 0 20 0;
#X connect 48 0 37 0;
#X connect 49 0 41 0;
#X connect 50 0 41 1;
#X connect 51 0 40 0;
#X connect 52 0 1 0;
#X connect 53 0 8 0;
#X connect 54 0 13 0;
