#N canvas 15 23 928 462 10;
#X obj 33 127 t f b;
#N canvas 0 22 450 300 (subpatch) 0;
#X array TENJI_0 14 float 3;
#A 0 0 0 0 0 0 0 0 0 0 0 0 0 0 0;
#X coords 0 0 14 7 54 64 1 0 0;
#X restore 34 331 graph;
#X obj 33 45 bng 15 250 50 0 empty empty empty 17 7 0 10 -262144 -1
-1;
#X obj 33 67 t b b;
#X obj 33 8 inlet;
#N canvas 0 22 450 300 (subpatch) 0;
#X array TENJI_1 14 float 3;
#A 0 2 2 0 0 0 0 0 0 0 0 0 0 0 0;
#X coords 0 0 14 7 54 64 1 0 0;
#X restore 90 331 graph;
#N canvas 0 22 450 300 (subpatch) 0;
#X array TENJI_2 14 float 3;
#A 0 3 5 4 6 5 4 3 5 1 1 2 1 1 0;
#X coords 0 0 14 7 54 64 1 0 0;
#X restore 146 331 graph;
#N canvas 0 22 450 300 (subpatch) 0;
#X array TENJI_3 14 float 3;
#A 0 6 5 6 1 6 0 2 6 7 2 0 5 7 0;
#X coords 0 0 14 7 54 64 1 0 0;
#X restore 202 331 graph;
#X obj 310 48 bng 15 250 50 0 empty empty empty 17 7 0 10 -262144 -1
-1;
#X obj 310 70 t b b;
#X obj 310 11 inlet;
#X obj 33 201 tabwrite TENJI_0;
#X obj 310 235 tabwrite TENJI_1;
#X obj 468 47 bng 15 250 50 0 empty empty empty 17 7 0 10 -262144 -1
-1;
#X obj 468 69 t b b;
#X obj 468 10 inlet;
#X obj 647 47 bng 15 250 50 0 empty empty empty 17 7 0 10 -262144 -1
-1;
#X obj 647 69 t b b;
#X obj 647 10 inlet;
#X obj 310 180 t f b;
#X obj 468 181 t f b;
#X obj 468 236 tabwrite TENJI_2;
#X obj 647 210 t f b;
#X obj 647 265 tabwrite TENJI_3;
#X msg 33 98 0 \, 0 \, 0 \, 0 \, 0 \, 0 \, 0 \, 0 \, 0 \, 0 \, 0 \,
0 \, 0;
#X msg 310 130 2 \, 2 \, 0 \, 0 \, 0 \, 0 \, 0 \, 0 \, 0 \, 0 \, 0
\, 0 \, 0;
#X msg 468 154 3 \, 5 \, 4 \, 6 \, 5 \, 4 \, 3 \, 5 \, 1 \, 1 \, 2
\, 1 \, 1;
#X obj 71 154 counter 0 15;
#X obj 321 205 counter 0 15;
#X obj 479 206 counter 0 15;
#X obj 658 235 counter 0 15;
#X msg 647 184 6 \, 5 \, 6 \, 1 \, 6 \, 0 \, 2 \, 6 \, 7 \, 2 \, 0
\, 5 \, 7;
#X connect 0 0 11 0;
#X connect 0 1 27 0;
#X connect 2 0 3 0;
#X connect 3 0 24 0;
#X connect 3 1 27 2;
#X connect 4 0 2 0;
#X connect 8 0 9 0;
#X connect 9 0 25 0;
#X connect 9 1 28 2;
#X connect 10 0 8 0;
#X connect 13 0 14 0;
#X connect 14 0 26 0;
#X connect 14 1 29 2;
#X connect 15 0 13 0;
#X connect 16 0 17 0;
#X connect 17 0 31 0;
#X connect 17 1 30 2;
#X connect 18 0 16 0;
#X connect 19 0 12 0;
#X connect 19 1 28 0;
#X connect 20 0 21 0;
#X connect 20 1 29 0;
#X connect 22 0 23 0;
#X connect 22 1 30 0;
#X connect 24 0 0 0;
#X connect 25 0 19 0;
#X connect 26 0 20 0;
#X connect 27 0 11 1;
#X connect 28 0 12 1;
#X connect 29 0 21 1;
#X connect 30 0 23 1;
#X connect 31 0 22 0;
